<?xml version="1.0" encoding="UTF-8"?>
<!DOCTYPE svg PUBLIC "-//W3C//DTD SVG 1.1//EN" "http://www.w3.org/Graphics/SVG/1.1/DTD/svg11.dtd">
<!-- Creator: CorelDRAW -->
<svg xmlns="http://www.w3.org/2000/svg" xml:space="preserve" width="1.70666in" height="1.70666in" version="1.1" style="shape-rendering:geometricPrecision; text-rendering:geometricPrecision; image-rendering:optimizeQuality; fill-rule:evenodd; clip-rule:evenodd"
viewBox="0 0 1707 1707"
 xmlns:xlink="http://www.w3.org/1999/xlink">
 <defs>
  <style type="text/css">
   <![CDATA[
    .fil0 {fill:black}
   ]]>
  </style>
 </defs>
 <g id="Layer_x0020_1">
  <metadata id="CorelCorpID_0Corel-Layer"/>
  <g id="_293619480">
   <g>
    <g id="_293620128">
     <path class="fil0" d="M129 736c-11,0 -19,-6 -24,-17 -30,-129 30,-247 43,-269 7,-11 22,-15 33,-9 10,7 15,20 8,33 0,0 0,0 0,0 -6,13 -64,120 -39,237 3,12 -4,25 -17,28 0,-3 -2,-3 -4,-3z"/>
    </g>
    <g id="_293619408">
     <path class="fil0" d="M1580 736c-2,0 -4,0 -4,0 -13,-2 -22,-15 -18,-28 26,-116 -32,-224 -38,-236l41 -24c12,21 73,140 43,269 -5,11 -13,19 -24,19z"/>
    </g>
    <g id="_293620176">
     <path class="fil0" d="M686 1109l-465 0c-10,0 -19,-7 -21,-15 0,2 -4,-5 -24,-22 -73,-64 -135,-181 -159,-297 -9,-47 -52,-282 45,-338 43,-24 69,-15 95,-6 0,0 0,0 0,0 36,-76 125,-132 217,-134l15 0c201,-8 427,-17 444,278 8,172 -37,368 -119,497 -4,7 -6,11 -6,20 0,8 -11,17 -22,17zm-452 -45l435 0c2,-7 5,-11 9,-18 75,-120 118,-305 110,-471 -13,-248 -190,-241 -394,-233l-15 0c-91,5 -166,65 -186,123 -4,11 -17,20 -27,15 -9,-2 -16,-4 -24,-6 -22,-9 -32,-11 -56,2 -48,26 -48,168 -24,288 22,106 80,213 144,272 13,13 22,21 28,28z"/>
    </g>
    <g id="_293620200">
     <path class="fil0" d="M714 685c-12,0 -23,-11 -23,-24 0,-84 -22,-144 -60,-181 -44,-39 -97,-34 -97,-34 -13,0 -24,-9 -26,-22 -2,-13 8,-23 21,-26 2,0 74,-6 132,48 49,45 75,116 77,215 0,13 -11,24 -24,24 0,0 0,0 0,0z"/>
    </g>
    <g id="_293620224">
     <path class="fil0" d="M342 1335c-39,0 -69,-32 -69,-69 0,-37 32,-69 69,-69 37,0 69,32 69,69 0,37 -30,69 -69,69zm0 -95c-13,0 -24,11 -24,24 0,13 11,24 24,24 13,0 24,-11 24,-24 0,-13 -11,-24 -24,-24z"/>
    </g>
    <g id="_293620296">
     <path class="fil0" d="M635 1417l-362 0c-41,0 -75,-35 -75,-76l0 -256c0,-13 11,-24 23,-24l465 0c13,0 24,11 24,24l0 256c0,41 -34,76 -75,76zm-390 -308l0 232c0,15 13,28 28,28l362 0c15,0 28,-13 28,-28l0 -232 -418 0z"/>
    </g>
    <g id="_293620704">
     <path class="fil0" d="M1487 1109l-465 0c-13,0 -21,-9 -23,-22 0,-6 -3,-13 -7,-19 -79,-129 -127,-325 -118,-497 15,-295 243,-287 443,-278l15 0c93,4 183,60 218,133 0,0 0,0 0,0 26,-8 54,-19 94,7 97,56 54,290 46,338 -24,116 -86,232 -160,297 -19,17 -23,24 -23,24 -2,13 -9,17 -20,17zm-445 -45l435 0c6,-7 15,-15 28,-26 64,-56 122,-166 144,-271 23,-121 23,-263 -24,-289 -24,-13 -34,-11 -56,-2 -6,2 -15,4 -24,6 -12,3 -23,-4 -28,-15 -19,-58 -92,-120 -185,-122l-15 0c-204,-9 -381,-15 -394,232 -8,164 35,349 110,472 2,2 7,8 9,15z"/>
    </g>
    <g id="_293620248">
     <path class="fil0" d="M994 685c0,0 0,0 0,0 -13,0 -23,-11 -23,-24 2,-97 28,-170 77,-215 58,-54 129,-48 131,-48 13,3 22,13 22,26 -2,13 -13,22 -26,22 -2,0 -54,-5 -97,34 -38,37 -60,97 -60,181 0,13 -11,24 -24,24z"/>
    </g>
    <g id="_293620488">
     <path class="fil0" d="M1367 1335c-39,0 -69,-32 -69,-69 0,-37 32,-69 69,-69 39,0 69,32 69,69 0,37 -30,69 -69,69zm0 -95c-13,0 -24,11 -24,24 0,13 11,24 24,24 13,0 23,-11 23,-24 0,-13 -10,-24 -23,-24z"/>
    </g>
    <g id="_293620008">
     <path class="fil0" d="M1436 1417l-362 0c-41,0 -75,-35 -75,-76l0 -256c0,-13 10,-24 23,-24l465 0c13,0 24,11 24,24l0 256c0,41 -34,76 -75,76zm-390 -308l0 232c0,15 13,28 28,28l362 0c15,0 28,-13 28,-28l0 -232 -418 0z"/>
    </g>
   </g>
  </g>
 </g>
</svg>
