<?xml version="1.0" encoding="utf-8"?>
<!-- Generator: Adobe Illustrator 24.3.0, SVG Export Plug-In . SVG Version: 6.00 Build 0)  -->
<svg version="1.1" id="Layer_1" xmlns="http://www.w3.org/2000/svg" xmlns:xlink="http://www.w3.org/1999/xlink" x="0px" y="0px"
	 viewBox="0 0 64 64" enable-background="new 0 0 64 64" xml:space="preserve">
<polygon points="50.2,16.9 54.1,17.7 54.5,15.8 54.5,15.8 55.4,11.5 56.5,6 52.5,5.2 "/>
<polygon points="57.8,9.3 57.4,11.5 56.6,15.2 58.6,15.6 59.8,9.7 "/>
<polygon points="9.5,15.9 9.5,15.9 9.9,17.9 13.8,17.1 11.4,5.3 7.5,6.1 8.5,11.2 "/>
<polygon points="7.3,15.3 6.4,11 6.1,9.4 4.2,9.8 5.3,15.7 "/>
<path d="M52,56h-3V46c0-0.3-0.2-0.6-0.4-0.8L40,39.5v-4.1l8.8-11.7c0.2-0.3,0.3-0.6,0.1-1l-4.7-12.1c0.2-0.2,0.3-0.3,0.5-0.6
	c0.1,0,0.3,0.1,0.4,0.1l4.9,1.7l0.7-1.9l-4.9-1.7C45.6,8.1,45.3,8,45,7.9V7c0-1.1-0.9-2-2-2h-4c-0.8,0-1.5,0.5-1.8,1.2
	c-3.4-0.4-6.9-0.4-10.3,0C26.5,5.5,25.8,5,25,5h-4c-1.1,0-2,0.9-2,2v0.9c-0.3,0.1-0.6,0.2-0.8,0.3l-4.9,1.7l0.7,1.9l4.9-1.7
	C19,10,19.1,10,19.3,9.9c0.1,0.2,0.3,0.4,0.5,0.6l-4.7,12.1c-0.1,0.3-0.1,0.7,0.1,1L24,35.3v4.4L18,50h-3v-1c0-1.7-1.3-3-3-3h-2
	c-1.7,0-3,1.3-3,3v1H3c-0.6,0-1,0.4-1,1v10c0,0.6,0.4,1,1,1h12h10c0.6,0,1-0.4,1-1v-4c0-0.6-0.4-1-1-1h-1.6l8.8-8.8l9.7,3.5V61
	c0,0.6,0.4,1,1,1h9c0.6,0,1-0.4,1-1v-4C53,56.4,52.6,56,52,56z M12,57h-2v-4h2V57z M13,50H9v-1c0-0.6,0.4-1,1-1h2c0.6,0,1,0.4,1,1
	V50z M32,33.6l-0.9-0.9l0.8-6.6l0.1,0l0.1,0l0.8,6.6L32,33.6z M35.9,24.5c1.3-1.1,2.1-2.7,2.1-4.5c0-3.3-2.7-6-6-6s-6,2.7-6,6
	c0,1.8,0.8,3.4,2.1,4.5l-2.7,0.4l-2.3-2.3l2.7-11.9c0.7-0.3,1.2-1,1.2-1.8V8.2c3.3-0.4,6.7-0.4,10,0V9c0,0.8,0.5,1.5,1.2,1.8
	l2.7,11.9l-2.3,2.3L35.9,24.5z"/>
</svg>
